<svg width="129" height="71" viewBox="0 0 129 71" xmlns="http://www.w3.org/2000/svg" xmlns:xlink="http://www.w3.org/1999/xlink" fill="none" overflow="hidden"><path d="M99.39 22.0867C98.0295 23.1687 96.2984 23.817 94.4092 23.817 90.0431 23.817 86.4905 20.3428 86.4905 16.0696 86.4905 11.7965 90.0431 8.3223 94.4092 8.3223 96.2939 8.3223 98.025 8.97057 99.39 10.0526L101.071 8.35426C99.277 6.84771 96.9538 5.93921 94.4137 5.93921 88.7369 5.93921 84.1357 10.4726 84.1357 16.0696 84.1357 21.6667 88.7369 26.2 94.4137 26.2 96.9538 26.2 99.277 25.2916 101.071 23.785L99.39 22.0867Z" fill="#000000"/><path d="M69.0252 40.1334C69.8569 40.1334 70.5348 39.4486 70.5348 38.6086 70.5348 37.7685 69.8569 37.0837 69.0252 37.0837 68.1936 37.0837 67.5156 37.7685 67.5156 38.6086 67.5156 39.4486 68.1936 40.1334 69.0252 40.1334Z" fill="#E90130"/><path d="M70.205 43.0232 67.8457 43.0232 67.8457 63.2795 70.205 63.2795 70.205 43.0232Z" fill="#E90130"/><path d="M19.3898 16.0148C19.3898 10.4589 15.0418 5.93921 9.69491 5.93921 6.82937 5.93921 4.18531 7.19467 2.35932 9.40884L2.35932 5.93921 0 5.93921 0 33.4954 2.35932 33.4954 2.35932 22.6619C4.20339 24.8989 6.84745 26.1681 9.69491 26.1681 15.0418 26.1681 19.3898 21.6119 19.3898 16.0103L19.3898 16.0148ZM9.69491 23.7896C5.74011 23.7896 2.51751 20.5117 2.35932 16.3299L2.35932 16.0148C2.35932 11.7737 5.64971 8.3223 9.69491 8.3223 13.7401 8.3223 17.0305 11.7737 17.0305 16.0148 17.0305 20.3017 13.7401 23.7896 9.69491 23.7896Z" fill="#000000"/><path d="M28.2086 63.2567C31.056 63.2567 33.7001 61.9876 35.5442 59.7506L35.5442 63.2841 37.9035 63.2841 37.9035 43.0278 35.5442 43.0278 35.5442 46.4975C33.7182 44.2879 31.0741 43.0278 28.2086 43.0278 22.8617 43.0278 18.5137 47.5475 18.5137 53.1035 18.5137 58.6594 22.8617 63.2613 28.2086 63.2613L28.2086 63.2567ZM20.873 53.0989C20.873 48.8577 24.1634 45.4064 28.2086 45.4064 32.2538 45.4064 35.5442 48.8577 35.5442 53.0989L35.5442 53.4139C35.386 57.5957 32.1634 60.8736 28.2086 60.8736 24.1634 60.8736 20.873 57.3857 20.873 53.0989Z" fill="#E90130"/><path d="M63.4943 53.0988C63.4943 47.5428 59.1463 43.0232 53.7994 43.0232 50.9339 43.0232 48.2898 44.2787 46.4638 46.4928L46.4638 43.0232 44.1045 43.0232 44.1045 70.5794 46.4638 70.5794 46.4638 59.7459C48.3079 61.9829 50.9519 63.2521 53.7994 63.2521 59.1463 63.2521 63.4943 58.6959 63.4943 53.0943L63.4943 53.0988ZM53.7994 60.8736C49.8446 60.8736 46.622 57.5957 46.4638 53.4138L46.4638 53.0988C46.4638 48.8577 49.7542 45.4063 53.7994 45.4063 57.8446 45.4063 61.135 48.8577 61.135 53.0988 61.135 57.3857 57.8446 60.8736 53.7994 60.8736Z" fill="#E90130"/><path d="M37.058 5.94385 37.058 17.905C37.058 21.2011 34.4682 23.817 31.1688 23.8581 27.91 23.817 25.3518 21.2011 25.3518 17.905L25.3518 5.94385 23.0332 5.94385 23.0332 17.905C23.0332 22.4794 26.6807 26.2001 31.1643 26.2001 35.6479 26.2001 39.4174 22.4794 39.4174 17.905L39.4174 5.94385 37.058 5.94385Z" fill="#000000"/><path d="M53.7994 5.93947C50.9519 5.93947 48.3079 7.20862 46.4638 9.44562L46.4638 0 44.1045 0 44.1045 26.2003 46.4638 26.2003 46.4638 22.7033C48.2898 24.9129 50.9339 26.1729 53.7994 26.1729 59.1463 26.1729 63.4943 21.6533 63.4943 16.0973 63.4943 10.5413 59.1463 5.93947 53.7994 5.93947ZM61.135 16.0973C61.135 20.3385 57.8446 23.7898 53.7994 23.7898 49.7542 23.7898 46.4638 20.3385 46.4638 16.0973L46.4638 15.7823C46.622 11.6005 49.8446 8.32256 53.7994 8.32256 57.7542 8.32256 61.135 11.8105 61.135 16.0973Z" fill="#000000"/><path d="M78.2782 3.04963C79.1098 3.04963 79.7878 2.36483 79.7878 1.52481 79.7878 0.684796 79.1098 0 78.2782 0 77.4465 0 76.7686 0.684796 76.7686 1.52481 76.7686 2.36483 77.4465 3.04963 78.2782 3.04963Z" fill="#000000"/><path d="M79.458 5.94385 77.0986 5.94385 77.0986 26.2001 79.458 26.2001 79.458 5.94385Z" fill="#000000"/><path d="M107.802 3.04963C108.633 3.04963 109.311 2.36483 109.311 1.52481 109.311 0.684796 108.633 0 107.802 0 106.97 0 106.292 0.684796 106.292 1.52481 106.292 2.36483 106.97 3.04963 107.802 3.04963Z" fill="#000000"/><path d="M108.786 5.57202 106.427 5.57202 106.427 25.8283 108.786 25.8283 108.786 5.57202Z" fill="#000000"/><path d="M107.612 43.0232C105.37 43.0232 103.251 43.9454 101.718 45.5752L101.718 43.0232 99.4404 43.0232 99.4404 63.2795 101.718 63.2795 101.718 51.2818C101.795 48.0176 104.439 45.3652 107.612 45.3652 110.785 45.3652 113.465 48.0176 113.465 51.2773L113.465 63.2795 115.784 63.2795 115.784 51.2773C115.784 46.7257 112.118 43.0232 107.612 43.0232Z" fill="#E90130"/><path d="M127.977 60.9741 127.742 61.038C127.516 61.1019 127.136 61.1749 126.598 61.1749 125.649 61.1749 125.243 60.5677 125.243 59.1434L125.243 45.3516 128.027 45.3516 128.027 43.0233 125.243 43.0233 125.243 36.2209 122.829 36.2209 122.829 43.0233 120.031 43.0233 120.031 45.3516 122.829 45.3516 122.829 59.2164C122.829 60.7367 123.1 61.7319 123.679 62.3391 124.217 62.96 125.039 63.2841 126.056 63.2841 126.82 63.2841 127.498 63.1791 127.963 62.9828L128.095 62.928 127.977 60.9741Z" fill="#E90130"/><path d="M91.1188 57.4543C89.8307 59.6045 87.4804 60.9422 84.9719 60.9422 81.0713 60.9422 77.8578 57.7921 77.5685 53.729L93.4691 53.729C94.1199 53.729 94.6261 53.2496 94.6261 52.6379L94.6261 52.4598C94.2103 47.0956 90.0612 43.0461 84.9719 43.0461 79.6024 43.0461 75.2363 47.6023 75.2363 53.204 75.2363 58.8056 79.6024 63.2796 84.9719 63.2796 88.2487 63.2796 91.2679 61.5767 93.0533 58.7234L91.1188 57.4497 91.1188 57.4543ZM84.9719 45.3927C88.4295 45.3927 91.3945 47.9173 92.1041 51.428L77.7177 51.428C78.5041 47.8625 81.4555 45.3927 84.9674 45.3927L84.9719 45.3927Z" fill="#E90130"/><path d="M13.0843 53.5055C13.0843 53.5055 12.4741 53.0216 11.8097 52.7431 11.1498 52.4646 10.2007 52.1359 8.23457 51.652 7.9679 51.5881 7.71027 51.5333 7.46169 51.4694 6.14643 51.1361 5.11141 50.6887 4.3792 50.1363 3.65152 49.5017 3.38033 48.9767 3.41197 48.2646 3.44361 47.5113 3.89107 46.7808 4.66847 46.2056 5.55886 45.5436 6.85152 45.2104 8.31592 45.2788 9.9792 45.3519 11.2402 46.1919 12.6052 47.1963L12.7363 47.2921 14.4538 45.6806C14.2459 45.4843 14.2052 45.4523 13.6357 45.0506 12.2888 44.1284 10.6346 43.156 8.41536 43.0555 6.48542 42.9688 4.76338 43.3705 3.43457 44.2106 1.98825 45.1967 1.07977 46.6347 1.05717 48.155 1.04361 49.2872 1.27412 50.3509 2.39954 51.442 3.74192 52.7477 5.82553 53.4325 7.73739 53.8068 9.37355 54.1264 10.8877 54.7382 11.647 55.3773 12.5555 56.2219 12.8809 56.8336 12.8809 57.7102 12.8447 58.5502 12.3024 59.3491 11.3758 59.9198 10.4447 60.6228 9.11592 60.9926 7.72835 60.9287 5.90237 60.8465 4.0131 60.043 2.11028 58.5365L1.97921 58.4315 0.297852 59.9883 0.465083 60.1344C2.67977 62.0655 5.09333 63.1201 7.62892 63.2662 9.53174 63.3483 11.1905 62.8918 12.7001 61.8692 14.2685 60.7735 15.1317 59.3719 15.1995 57.8106 15.2718 56.1488 14.4628 54.4962 13.0888 53.501L13.0843 53.5055Z" fill="#E90130"/><path d="M126.522 16.4257C126.522 16.4257 125.912 15.9418 125.247 15.6633 124.587 15.3848 123.638 15.0561 121.672 14.5722 121.405 14.5083 121.148 14.4535 120.899 14.3896 119.584 14.0563 118.549 13.6089 117.817 13.0565 117.089 12.4219 116.818 11.8969 116.849 11.1847 116.881 10.4314 117.329 9.70099 118.106 9.12576 118.996 8.46379 120.289 8.13052 121.753 8.199 123.417 8.27205 124.678 9.11207 126.043 10.1164L126.174 10.2123 127.891 8.60075C127.683 8.40444 127.643 8.37249 127.073 7.97074 125.726 7.04855 124.072 6.07614 121.853 5.9757 119.923 5.88896 118.201 6.2907 116.872 7.13072 115.426 8.11683 114.517 9.5549 114.495 11.0751 114.481 12.2073 114.712 13.2711 115.837 14.3622 117.179 15.6678 119.263 16.3526 121.175 16.727 122.811 17.0466 124.325 17.6583 125.084 18.2975 125.993 19.1421 126.318 19.7538 126.318 20.6303 126.282 21.4704 125.74 22.2693 124.813 22.84 123.882 23.543 122.553 23.9128 121.166 23.8489 119.34 23.7667 117.451 22.9632 115.548 21.4567L115.417 21.3517 113.735 22.9084 113.903 23.0545C116.117 24.9856 118.531 26.0402 121.066 26.1863 122.969 26.2685 124.628 25.812 126.138 24.7893 127.706 23.6937 128.569 22.2921 128.637 20.7308 128.709 19.069 127.9 17.4164 126.526 16.4211L126.522 16.4257Z" fill="#000000"/><path d="M70.205 0 67.8457 0 67.8457 26.2003 70.205 26.2003 70.205 0Z" fill="#000000"/></svg>