<svg width="148" height="82" viewBox="0 0 148 82" xmlns="http://www.w3.org/2000/svg" xmlns:xlink="http://www.w3.org/1999/xlink" fill="none" overflow="hidden"><style>
.MsftOfcThm_Text1_Fill_v2 {
 fill:#FFFFFF; 
}
</style>
<defs><clipPath id="clip0_5116_7092"><rect x="0" y="0" width="148" height="81.3187" fill="#FFFFFF"/></clipPath></defs><g clip-path="url(#clip0_5116_7092)"><path d="M114.353 25.4528C112.785 26.6975 110.792 27.4465 108.625 27.4465 103.6 27.4465 99.5159 23.4426 99.5159 18.5243 99.5159 13.6061 103.605 9.60213 108.625 9.60213 110.792 9.60213 112.785 10.3511 114.353 11.5959L116.286 9.64068C114.223 7.90581 111.549 6.85938 108.625 6.85938 102.097 6.85938 96.7988 12.086 96.7988 18.5298 96.7988 24.9736 102.091 30.2003 108.625 30.2003 111.549 30.2003 114.223 29.1539 116.286 27.419L114.353 25.4638 114.353 25.4528Z" class="MsftOfcThm_Text1_Fill_v2" stroke="none" stroke-width="1" stroke-linecap="butt" stroke-linejoin="miter" stroke-miterlimit="4" fill="#FFFFFF" fill-opacity="1"/><path d="M79.4284 46.2326C80.3867 46.2326 81.1653 45.445 81.1653 44.4757 81.1653 43.5063 80.3867 42.7188 79.4284 42.7188 78.47 42.7188 77.6914 43.5063 77.6914 44.4757 77.6914 45.445 78.47 46.2326 79.4284 46.2326Z" class="MsftOfcThm_Text1_Fill_v2" stroke="none" stroke-width="1" stroke-linecap="butt" stroke-linejoin="miter" stroke-miterlimit="4" fill="#FFFFFF" fill-opacity="1"/><path d="M80.7917 49.5625 78.0801 49.5625 78.0801 72.9034 80.7917 72.9034 80.7917 49.5625Z" class="MsftOfcThm_Text1_Fill_v2" stroke="none" stroke-width="1" stroke-linecap="butt" stroke-linejoin="miter" stroke-miterlimit="4" fill="#FFFFFF" fill-opacity="1"/><path d="M22.3065 18.4536C22.3065 12.0539 17.3026 6.84375 11.1552 6.84375 7.86101 6.84375 4.81727 8.29223 2.71551 10.8422L2.71551 6.84375 0.00390625 6.84375 0.00390625 38.5947 2.71551 38.5947 2.71551 26.1146C4.83905 28.6921 7.87735 30.1571 11.1552 30.1571 17.3081 30.1571 22.3065 24.9085 22.3065 18.4536ZM11.1498 27.4144C6.59778 27.4144 2.88975 23.6417 2.71006 18.8226L2.71006 18.4591C2.71006 13.574 6.49432 9.59752 11.1498 9.59752 15.8052 9.59752 19.5895 13.574 19.5895 18.4591 19.5895 23.3994 15.8052 27.4144 11.1498 27.4144Z" class="MsftOfcThm_Text1_Fill_v2" stroke="none" stroke-width="1" stroke-linecap="butt" stroke-linejoin="miter" stroke-miterlimit="4" fill="#FFFFFF" fill-opacity="1"/><path d="M32.456 72.8782C35.7339 72.8782 38.7776 71.4132 40.8957 68.8357L40.8957 72.9057 43.6073 72.9057 43.6073 49.5703 40.8957 49.5703 40.8957 53.5688C38.794 51.0188 35.7502 49.5703 32.456 49.5703 26.3032 49.5703 21.3047 54.7749 21.3047 61.1802 21.3047 67.5854 26.3086 72.8837 32.456 72.8837L32.456 72.8782ZM24.0163 61.1802C24.0163 56.295 27.8005 52.3186 32.456 52.3186 37.1115 52.3186 40.8957 56.295 40.8957 61.1802L40.8957 61.5437C40.716 66.3628 37.008 70.1354 32.456 70.1354 27.8005 70.1354 24.0163 66.1149 24.0163 61.1802Z" class="MsftOfcThm_Text1_Fill_v2" stroke="none" stroke-width="1" stroke-linecap="butt" stroke-linejoin="miter" stroke-miterlimit="4" fill="#FFFFFF" fill-opacity="1"/><path d="M73.0605 61.1802C73.0605 54.7804 68.0565 49.5703 61.9091 49.5703 58.6149 49.5703 55.5712 51.0188 53.4694 53.5688L53.4694 49.5703 50.7578 49.5703 50.7578 81.3212 53.4694 81.3212 53.4694 68.8412C55.593 71.4187 58.6313 72.8837 61.9091 72.8837 68.062 72.8837 73.0605 67.635 73.0605 61.1802ZM61.9091 70.1354C57.3571 70.1354 53.6491 66.3628 53.4694 61.5437L53.4694 61.1802C53.4694 56.295 57.2537 52.3186 61.9091 52.3186 66.5646 52.3186 70.3489 56.295 70.3489 61.1802 70.3489 66.1204 66.5646 70.1354 61.9091 70.1354Z" class="MsftOfcThm_Text1_Fill_v2" stroke="none" stroke-width="1" stroke-linecap="butt" stroke-linejoin="miter" stroke-miterlimit="4" fill="#FFFFFF" fill-opacity="1"/><path d="M42.6311 6.85156 42.6311 20.6314C42.6311 24.4316 39.6527 27.4442 35.8521 27.4883 32.1005 27.4442 29.1602 24.4316 29.1602 20.6314L29.1602 6.85156 26.4922 6.85156 26.4922 20.6314C26.4922 25.9021 30.6903 30.187 35.8467 30.187 41.0031 30.187 45.3427 25.9021 45.3427 20.6314L45.3427 6.85156 42.6311 6.85156Z" class="MsftOfcThm_Text1_Fill_v2" stroke="none" stroke-width="1" stroke-linecap="butt" stroke-linejoin="miter" stroke-miterlimit="4" fill="#FFFFFF" fill-opacity="1"/><path d="M61.9091 6.84586C58.6313 6.84586 55.5875 8.31087 53.4694 10.8884L53.4694 0 50.7578 0 50.7578 30.1868 53.4694 30.1868 53.4694 26.1553C55.5712 28.7053 58.6149 30.1537 61.9091 30.1537 68.062 30.1537 73.0605 24.9491 73.0605 18.5439 73.0605 12.1386 68.0565 6.84035 61.9091 6.84035L61.9091 6.84586ZM70.3489 18.5439C70.3489 23.429 66.5646 27.4055 61.9091 27.4055 57.2537 27.4055 53.4694 23.429 53.4694 18.5439L53.4694 18.1804C53.6491 13.3613 57.3571 9.58861 61.9091 9.58861 66.4611 9.58861 70.3489 13.6091 70.3489 18.5439Z" class="MsftOfcThm_Text1_Fill_v2" stroke="none" stroke-width="1" stroke-linecap="butt" stroke-linejoin="miter" stroke-miterlimit="4" fill="#FFFFFF" fill-opacity="1"/><path d="M90.0651 3.5138C91.0234 3.5138 91.802 2.72623 91.802 1.7569 91.802 0.787577 91.0234 0 90.0651 0 89.1068 0 88.3281 0.787577 88.3281 1.7569 88.3281 2.72623 89.1068 3.5138 90.0651 3.5138Z" class="MsftOfcThm_Text1_Fill_v2" stroke="none" stroke-width="1" stroke-linecap="butt" stroke-linejoin="miter" stroke-miterlimit="4" fill="#FFFFFF" fill-opacity="1"/><path d="M91.4284 6.85156 88.7168 6.85156 88.7168 30.1925 91.4284 30.1925 91.4284 6.85156Z" class="MsftOfcThm_Text1_Fill_v2" stroke="none" stroke-width="1" stroke-linecap="butt" stroke-linejoin="miter" stroke-miterlimit="4" fill="#FFFFFF" fill-opacity="1"/><path d="M124.038 3.5138C124.996 3.5138 125.775 2.72623 125.775 1.7569 125.775 0.787577 124.996 0 124.038 0 123.079 0 122.301 0.787577 122.301 1.7569 122.301 2.72623 123.079 3.5138 124.038 3.5138Z" class="MsftOfcThm_Text1_Fill_v2" stroke="none" stroke-width="1" stroke-linecap="butt" stroke-linejoin="miter" stroke-miterlimit="4" fill="#FFFFFF" fill-opacity="1"/><path d="M125.382 6.85156 122.67 6.85156 122.67 30.1925 125.382 30.1925 125.382 6.85156Z" class="MsftOfcThm_Text1_Fill_v2" stroke="none" stroke-width="1" stroke-linecap="butt" stroke-linejoin="miter" stroke-miterlimit="4" fill="#FFFFFF" fill-opacity="1"/><path d="M123.816 49.5703C121.24 49.5703 118.801 50.6333 117.037 52.5113L117.037 49.5703 114.412 49.5703 114.412 72.9112 117.037 72.9112 117.037 59.0873C117.124 55.3312 120.167 52.269 123.816 52.269 127.464 52.269 130.551 55.3257 130.551 59.0818L130.551 72.9112 133.219 72.9112 133.219 59.0818C133.219 53.8386 128.999 49.5703 123.816 49.5703Z" class="MsftOfcThm_Text1_Fill_v2" stroke="none" stroke-width="1" stroke-linecap="butt" stroke-linejoin="miter" stroke-miterlimit="4" fill="#FFFFFF" fill-opacity="1"/><path d="M147.253 70.2524 146.981 70.3295C146.725 70.4011 146.284 70.4837 145.664 70.4837 144.569 70.4837 144.106 69.7842 144.106 68.143L144.106 52.2538 147.308 52.2538 147.308 49.5716 144.106 49.5716 144.106 41.7344 141.329 41.7344 141.329 49.5716 138.111 49.5716 138.111 52.2538 141.329 52.2538 141.329 68.2256C141.329 69.977 141.64 71.1226 142.304 71.822 142.919 72.538 143.867 72.9125 145.043 72.9125 145.925 72.9125 146.704 72.7913 147.237 72.5655L147.39 72.505 147.253 70.2579 147.253 70.2524Z" class="MsftOfcThm_Text1_Fill_v2" stroke="none" stroke-width="1" stroke-linecap="butt" stroke-linejoin="miter" stroke-miterlimit="4" fill="#FFFFFF" fill-opacity="1"/><path d="M104.838 66.1958C103.357 68.6741 100.651 70.2107 97.7648 70.2107 93.2781 70.2107 89.581 66.5813 89.2488 61.9054L107.539 61.9054C108.284 61.9054 108.873 61.3546 108.873 60.6497L108.873 60.4459C108.393 54.2609 103.618 49.6016 97.7648 49.6016 91.5902 49.6016 86.5645 54.8502 86.5645 61.3051 86.5645 67.7599 91.5902 72.9149 97.7648 72.9149 101.538 72.9149 105.007 70.9543 107.065 67.6663L104.843 66.2013 104.838 66.1958ZM97.7648 52.2947C101.745 52.2947 105.154 55.2027 105.97 59.2508L89.4176 59.2508C90.3269 55.1421 93.7192 52.2947 97.7593 52.2947L97.7648 52.2947Z" class="MsftOfcThm_Text1_Fill_v2" stroke="none" stroke-width="1" stroke-linecap="butt" stroke-linejoin="miter" stroke-miterlimit="4" fill="#FFFFFF" fill-opacity="1"/><path d="M15.0576 61.6487C15.0576 61.6487 14.3552 61.0924 13.5929 60.7675 12.8306 60.4425 11.7416 60.068 9.48196 59.5118 9.17705 59.4347 8.87757 59.3741 8.59443 59.297 7.08073 58.9169 5.88828 58.3992 5.04431 57.7604 4.20578 57.0279 3.89542 56.4275 3.93353 55.6069 3.97165 54.7422 4.48347 53.8996 5.3819 53.2387 6.40555 52.4731 7.89203 52.0931 9.57453 52.1702 11.4857 52.2528 12.9395 53.2222 14.5131 54.3787L14.6656 54.4889 16.6421 52.6328C16.4025 52.407 16.359 52.3685 15.7001 51.9114 14.1483 50.8484 12.248 49.7249 9.69432 49.6147 7.47277 49.5156 5.49624 49.9782 3.96076 50.9475 2.30004 52.0821 1.24916 53.7399 1.22738 55.4913 1.21104 56.7965 1.47784 58.0247 2.7683 59.2804 4.30923 60.784 6.71047 61.5771 8.91024 62.0067 10.7942 62.3757 12.5366 63.0806 13.4078 63.8131 14.4532 64.7825 14.8235 65.4874 14.8235 66.5008 14.7799 67.4701 14.1538 68.3899 13.092 69.0453 12.0193 69.8549 10.4893 70.279 8.89391 70.2074 6.79214 70.1138 4.6196 69.1885 2.42527 67.4536L2.27281 67.3324 0.339844 69.1279 0.530418 69.2986C3.07867 71.5237 5.85561 72.7408 8.77412 72.9061 10.963 73.0052 12.8687 72.4765 14.6111 71.2979 16.4134 70.0366 17.4099 68.4174 17.4861 66.622 17.5678 64.7109 16.6367 62.8053 15.0576 61.6542L15.0576 61.6487Z" class="MsftOfcThm_Text1_Fill_v2" stroke="none" stroke-width="1" stroke-linecap="butt" stroke-linejoin="miter" stroke-miterlimit="4" fill="#FFFFFF" fill-opacity="1"/><path d="M145.577 18.9221C145.577 18.9221 144.875 18.3659 144.112 18.0409 143.35 17.716 142.261 17.3415 140.002 16.7852 139.697 16.7081 139.397 16.6475 139.114 16.5704 137.6 16.1904 136.408 15.6727 135.564 15.0338 134.725 14.3013 134.415 13.701 134.453 12.8804 134.491 12.0157 135.003 11.173 135.901 10.5121 136.925 9.74657 138.412 9.36655 140.094 9.44365 142.005 9.52627 143.459 10.4956 145.033 11.6522L145.185 11.7623 147.162 9.90629C146.922 9.68048 146.879 9.64192 146.22 9.1848 144.668 8.12185 142.768 6.99831 140.214 6.88816 137.992 6.78902 136.016 7.25166 134.48 8.22098 132.82 9.35553 131.769 11.0133 131.747 12.7647 131.731 14.07 131.997 15.2982 133.288 16.5539 134.829 18.0574 137.23 18.8505 139.43 19.2801 141.314 19.6491 143.056 20.3541 143.927 21.0866 144.973 22.0559 145.343 22.7609 145.343 23.7742 145.299 24.7436 144.673 25.6633 143.612 26.3187 142.539 27.1283 141.009 27.5524 139.413 27.4808 137.312 27.3872 135.139 26.4619 132.945 24.7271L132.792 24.6059 130.859 26.4013 131.05 26.5721C133.598 28.7971 136.375 30.0143 139.294 30.1795 141.483 30.2786 143.388 29.7499 145.131 28.5713 146.933 27.3101 147.929 25.6909 148.006 23.8954 148.087 21.9843 147.156 20.0787 145.577 18.9276L145.577 18.9221Z" class="MsftOfcThm_Text1_Fill_v2" stroke="none" stroke-width="1" stroke-linecap="butt" stroke-linejoin="miter" stroke-miterlimit="4" fill="#FFFFFF" fill-opacity="1"/><path d="M80.7702 0 78.0586 0 78.0586 30.1813 80.7702 30.1813 80.7702 0Z" class="MsftOfcThm_Text1_Fill_v2" stroke="none" stroke-width="1" stroke-linecap="butt" stroke-linejoin="miter" stroke-miterlimit="4" fill="#FFFFFF" fill-opacity="1"/></g></svg>