<svg width="183" height="101" viewBox="0 0 183 101" xmlns="http://www.w3.org/2000/svg" xmlns:xlink="http://www.w3.org/1999/xlink" fill="none" overflow="hidden"><style>
.MsftOfcThm_Background1_Fill_v2 {
 fill:#FFFFFF; 
}
</style>
<path d="M140.969 31.3266C139.039 32.8612 136.584 33.7807 133.904 33.7807 127.712 33.7807 122.673 28.8531 122.673 22.7924 122.673 16.7317 127.712 11.8041 133.904 11.8041 136.577 11.8041 139.033 12.7235 140.969 14.2581L143.353 11.8494C140.808 9.71259 137.513 8.42404 133.911 8.42404 125.859 8.42404 119.333 14.8539 119.333 22.7924 119.333 30.7309 125.859 37.1607 133.911 37.1607 137.513 37.1607 140.808 35.8722 143.353 33.7354L140.969 31.3266Z" class="MsftOfcThm_Background1_Fill_v2" stroke="none" stroke-width="1" stroke-linecap="butt" stroke-linejoin="miter" stroke-miterlimit="4" fill="#000000" fill-opacity="1"/><path d="M97.9014 56.9229C99.0809 56.9229 100.042 55.9516 100.042 54.7602 100.042 53.5688 99.0809 52.5975 97.9014 52.5975 96.7218 52.5975 95.7603 53.5688 95.7603 54.7602 95.7603 55.9516 96.7218 56.9229 97.9014 56.9229Z" class="MsftOfcThm_Background1_Fill_v2" stroke="none" stroke-width="1" stroke-linecap="butt" stroke-linejoin="miter" stroke-miterlimit="4" fill="#000000" fill-opacity="1"/><path d="M99.5743 61.0218 96.228 61.0218 96.228 89.7521 99.5743 89.7521 99.5743 61.0218Z" class="MsftOfcThm_Background1_Fill_v2" stroke="none" stroke-width="1" stroke-linecap="butt" stroke-linejoin="miter" stroke-miterlimit="4" fill="#000000" fill-opacity="1"/><path d="M27.5013 22.7147C27.5013 14.8344 21.3343 8.42404 13.7506 8.42404 9.68635 8.42404 5.93617 10.2047 3.34631 13.3452L3.34631 8.42404 0 8.42404 0 47.508 3.34631 47.508 3.34631 32.1425C5.96181 35.3153 9.71199 37.1154 13.7506 37.1154 21.3343 37.1154 27.5013 30.6532 27.5013 22.7082L27.5013 22.7147ZM13.7506 33.7419C8.1414 33.7419 3.57068 29.0927 3.34631 23.1615L3.34631 22.7147C3.34631 16.6993 8.01319 11.8041 13.7506 11.8041 19.4881 11.8041 24.155 16.6993 24.155 22.7147 24.155 28.7948 19.4881 33.7419 13.7506 33.7419Z" class="MsftOfcThm_Background1_Fill_v2" stroke="none" stroke-width="1" stroke-linecap="butt" stroke-linejoin="miter" stroke-miterlimit="4" fill="#000000" fill-opacity="1"/><path d="M40.0085 89.7194C44.0471 89.7194 47.7973 87.9193 50.4128 84.7465L50.4128 89.7582 53.7591 89.7582 53.7591 61.028 50.4128 61.028 50.4128 65.9491C47.8229 62.8151 44.0727 61.028 40.0085 61.028 32.4248 61.028 26.2578 67.4384 26.2578 75.3186 26.2578 83.1989 32.4248 89.7258 40.0085 89.7258L40.0085 89.7194ZM29.6041 75.3122C29.6041 69.2968 34.271 64.4016 40.0085 64.4016 45.7459 64.4016 50.4128 69.2968 50.4128 75.3122L50.4128 75.759C50.1884 81.6902 45.6177 86.3393 40.0085 86.3393 34.271 86.3393 29.6041 81.3923 29.6041 75.3122Z" class="MsftOfcThm_Background1_Fill_v2" stroke="none" stroke-width="1" stroke-linecap="butt" stroke-linejoin="miter" stroke-miterlimit="4" fill="#000000" fill-opacity="1"/><path d="M90.0555 75.3122C90.0555 67.4319 83.8885 61.0215 76.3048 61.0215 72.2405 61.0215 68.4904 62.8022 65.9005 65.9427L65.9005 61.0215 62.5542 61.0215 62.5542 100.106 65.9005 100.106 65.9005 84.74C68.516 87.9128 72.2662 89.7129 76.3048 89.7129 83.8885 89.7129 90.0555 83.2507 90.0555 75.3057L90.0555 75.3122ZM76.3048 86.3394C70.6956 86.3394 66.1249 81.6902 65.9005 75.759L65.9005 75.3122C65.9005 69.2968 70.5674 64.4016 76.3048 64.4016 82.0423 64.4016 86.7092 69.2968 86.7092 75.3122 86.7092 81.3923 82.0423 86.3394 76.3048 86.3394Z" class="MsftOfcThm_Background1_Fill_v2" stroke="none" stroke-width="1" stroke-linecap="butt" stroke-linejoin="miter" stroke-miterlimit="4" fill="#000000" fill-opacity="1"/><path d="M52.5599 8.43051 52.5599 25.3954C52.5599 30.0704 48.8867 33.7807 44.207 33.839 39.585 33.7807 35.9566 30.0704 35.9566 25.3954L35.9566 8.43051 32.668 8.43051 32.668 25.3954C32.668 31.8835 37.8413 37.1607 44.2006 37.1607 50.5598 37.1607 55.9062 31.8835 55.9062 25.3954L55.9062 8.43051 52.5599 8.43051Z" class="MsftOfcThm_Background1_Fill_v2" stroke="none" stroke-width="1" stroke-linecap="butt" stroke-linejoin="miter" stroke-miterlimit="4" fill="#000000" fill-opacity="1"/><path d="M76.3048 8.42416C72.2662 8.42416 68.516 10.2243 65.9005 13.3971L65.9005 0 62.5542 0 62.5542 37.1609 65.9005 37.1609 65.9005 32.2009C68.4904 35.3349 72.2405 37.122 76.3048 37.122 83.8885 37.122 90.0555 30.7116 90.0555 22.8314 90.0555 14.9511 83.8885 8.42416 76.3048 8.42416ZM86.7092 22.8314C86.7092 28.8468 82.0423 33.742 76.3048 33.742 70.5674 33.742 65.9005 28.8468 65.9005 22.8314L65.9005 22.3846C66.1249 16.4533 70.6956 11.8042 76.3048 11.8042 81.9141 11.8042 86.7092 16.7512 86.7092 22.8314Z" class="MsftOfcThm_Background1_Fill_v2" stroke="none" stroke-width="1" stroke-linecap="butt" stroke-linejoin="miter" stroke-miterlimit="4" fill="#000000" fill-opacity="1"/><path d="M111.024 4.3254C112.204 4.3254 113.166 3.35412 113.166 2.1627 113.166 0.971271 112.204 0 111.024 0 109.845 0 108.883 0.971271 108.883 2.1627 108.883 3.35412 109.845 4.3254 111.024 4.3254Z" class="MsftOfcThm_Background1_Fill_v2" stroke="none" stroke-width="1" stroke-linecap="butt" stroke-linejoin="miter" stroke-miterlimit="4" fill="#000000" fill-opacity="1"/><path d="M112.698 8.43051 109.352 8.43051 109.352 37.1607 112.698 37.1607 112.698 8.43051Z" class="MsftOfcThm_Background1_Fill_v2" stroke="none" stroke-width="1" stroke-linecap="butt" stroke-linejoin="miter" stroke-miterlimit="4" fill="#000000" fill-opacity="1"/><path d="M152.898 4.3254C154.078 4.3254 155.04 3.35412 155.04 2.1627 155.04 0.971271 154.078 0 152.898 0 151.719 0 150.757 0.971271 150.757 2.1627 150.757 3.35412 151.719 4.3254 152.898 4.3254Z" class="MsftOfcThm_Background1_Fill_v2" stroke="none" stroke-width="1" stroke-linecap="butt" stroke-linejoin="miter" stroke-miterlimit="4" fill="#000000" fill-opacity="1"/><path d="M154.295 7.90317 150.949 7.90317 150.949 36.6334 154.295 36.6334 154.295 7.90317Z" class="MsftOfcThm_Background1_Fill_v2" stroke="none" stroke-width="1" stroke-linecap="butt" stroke-linejoin="miter" stroke-miterlimit="4" fill="#000000" fill-opacity="1"/><path d="M152.629 61.0215C149.45 61.0215 146.443 62.3295 144.27 64.6412L144.27 61.0215 141.039 61.0215 141.039 89.7518 144.27 89.7518 144.27 72.7351C144.379 68.1054 148.129 64.3433 152.629 64.3433 157.13 64.3433 160.931 68.1054 160.931 72.7286L160.931 89.7518 164.22 89.7518 164.22 72.7286C164.22 66.2729 159.021 61.0215 152.629 61.0215Z" class="MsftOfcThm_Background1_Fill_v2" stroke="none" stroke-width="1" stroke-linecap="butt" stroke-linejoin="miter" stroke-miterlimit="4" fill="#000000" fill-opacity="1"/><path d="M181.515 86.4819 181.182 86.5726C180.861 86.6632 180.323 86.7669 179.56 86.7669 178.213 86.7669 177.636 85.9057 177.636 83.8854L177.636 64.324 181.585 64.324 181.585 61.0217 177.636 61.0217 177.636 51.3737 174.213 51.3737 174.213 61.0217 170.245 61.0217 170.245 64.324 174.213 64.324 174.213 83.989C174.213 86.1452 174.598 87.5568 175.418 88.418 176.181 89.2986 177.348 89.7584 178.79 89.7584 179.874 89.7584 180.835 89.6094 181.496 89.331L181.682 89.2533 181.515 86.4819Z" class="MsftOfcThm_Background1_Fill_v2" stroke="none" stroke-width="1" stroke-linecap="butt" stroke-linejoin="miter" stroke-miterlimit="4" fill="#000000" fill-opacity="1"/><path d="M129.237 81.4894C127.41 84.5392 124.076 86.4364 120.518 86.4364 114.986 86.4364 110.428 81.9686 110.018 76.2057L132.57 76.2057C133.493 76.2057 134.211 75.5258 134.211 74.6581L134.211 74.4056C133.621 66.7973 127.737 61.0539 120.518 61.0539 112.903 61.0539 106.71 67.5161 106.71 75.4611 106.71 83.4061 112.903 89.7517 120.518 89.7517 125.166 89.7517 129.448 87.3365 131.98 83.2895L129.237 81.4829 129.237 81.4894ZM120.518 64.3821C125.422 64.3821 129.628 67.9628 130.634 72.9422L110.229 72.9422C111.345 67.8851 115.531 64.3821 120.512 64.3821L120.518 64.3821Z" class="MsftOfcThm_Background1_Fill_v2" stroke="none" stroke-width="1" stroke-linecap="butt" stroke-linejoin="miter" stroke-miterlimit="4" fill="#000000" fill-opacity="1"/><path d="M18.5583 75.8886C18.5583 75.8886 17.6929 75.2022 16.7505 74.8072 15.8146 74.4122 14.4684 73.946 11.6798 73.2597 11.3016 73.169 10.9362 73.0913 10.5836 73.0006 8.71811 72.528 7.25009 71.8934 6.21158 71.1099 5.17948 70.2099 4.79485 69.4652 4.83972 68.4551 4.8846 67.3867 5.51924 66.3507 6.62186 65.5348 7.88474 64.5959 9.71815 64.1232 11.7952 64.2204 14.1543 64.324 15.9428 65.5154 17.8788 66.9399L18.0647 67.0759 20.5007 64.7902C20.2058 64.5117 20.1481 64.4664 19.3404 63.8966 17.43 62.5886 15.0838 61.2094 11.9362 61.067 9.1989 60.9439 6.75648 61.5137 4.87178 62.7052 2.8204 64.1038 1.53188 66.1435 1.49982 68.2997 1.48059 69.9055 1.80753 71.4142 3.40376 72.9618 5.30769 74.8137 8.26296 75.785 10.9746 76.3159 13.2952 76.7692 15.4428 77.6369 16.5198 78.5434 17.8083 79.7413 18.2698 80.6089 18.2698 81.8522 18.2185 83.0436 17.4493 84.1767 16.1351 84.9861 14.8145 85.9833 12.9298 86.5078 10.9618 86.4172 8.37194 86.3006 5.69233 85.161 2.99348 83.0242L2.80758 82.8752 0.422852 85.0833 0.660042 85.2905C3.80121 88.0295 7.22445 89.5252 10.8208 89.7324 13.5196 89.849 15.8723 89.2015 18.0134 87.751 20.2379 86.197 21.4623 84.2091 21.5584 81.9946 21.661 79.6377 20.5135 77.2937 18.5647 75.8821L18.5583 75.8886Z" class="MsftOfcThm_Background1_Fill_v2" stroke="none" stroke-width="1" stroke-linecap="butt" stroke-linejoin="miter" stroke-miterlimit="4" fill="#000000" fill-opacity="1"/><path d="M179.451 23.2973C179.451 23.2973 178.585 22.6109 177.643 22.216 176.707 21.821 175.361 21.3548 172.572 20.6684 172.194 20.5778 171.829 20.5001 171.476 20.4094 169.611 19.9367 168.143 19.3021 167.104 18.5187 166.072 17.6186 165.687 16.874 165.732 15.8638 165.777 14.7954 166.412 13.7594 167.514 12.9436 168.777 12.0047 170.611 11.532 172.688 11.6291 175.047 11.7327 176.835 12.9241 178.771 14.3487L178.957 14.4846 181.393 12.1989C181.098 11.9205 181.041 11.8752 180.233 11.3053 178.323 9.99737 175.976 8.61816 172.829 8.47571 170.091 8.35268 167.649 8.92249 165.764 10.1139 163.713 11.5126 162.424 13.5522 162.392 15.7084 162.373 17.3143 162.7 18.823 164.296 20.3705 166.2 22.2224 169.156 23.1937 171.867 23.7247 174.188 24.1779 176.335 25.0456 177.412 25.9521 178.701 27.15 179.162 28.0177 179.162 29.2609 179.111 30.4523 178.342 31.5855 177.028 32.3949 175.707 33.3921 173.822 33.9166 171.854 33.8259 169.265 33.7093 166.585 32.5697 163.886 30.4329L163.7 30.284 161.315 32.492 161.553 32.6992C164.694 35.4382 168.117 36.934 171.713 37.1412 174.412 37.2577 176.765 36.6102 178.906 35.1598 181.13 33.6057 182.355 31.6179 182.451 29.4034 182.554 27.0464 181.406 24.7024 179.457 23.2908L179.451 23.2973Z" class="MsftOfcThm_Background1_Fill_v2" stroke="none" stroke-width="1" stroke-linecap="butt" stroke-linejoin="miter" stroke-miterlimit="4" fill="#000000" fill-opacity="1"/><path d="M99.5748 0 96.2285 0 96.2285 37.1609 99.5748 37.1609 99.5748 0Z" class="MsftOfcThm_Background1_Fill_v2" stroke="none" stroke-width="1" stroke-linecap="butt" stroke-linejoin="miter" stroke-miterlimit="4" fill="#000000" fill-opacity="1"/></svg>